<?xml version="1.0" standalone="no"?>
<!DOCTYPE svg PUBLIC "-//W3C//DTD SVG 1.1//EN" "http://www.w3.org/Graphics/SVG/1.1/DTD/svg11.dtd">
<svg viewBox="0 0 1024 1024" width="100%" height="100%" fill="#fff" version="1.1" xmlns="http://www.w3.org/2000/svg" xmlns:xlink="http://www.w3.org/1999/xlink">
	<path d="M861.52533333 100.97185185L162.47466667 100.97185185c-21.48124445 0-38.83614815 17.3549037-38.83614815 38.83614816s17.3549037 38.83614815 38.83614815 38.83614815l699.05066666 0c21.48124445 0 38.83614815-17.3549037 38.83614815-38.83614815S883.00657778 100.97185185 861.52533333 100.97185185z">
	</path>
	<path d="M539.54939259 240.66994569c-3.64088889-3.64088889-7.88859259-6.43223703-12.62174814-8.49540742-9.46631111-3.88361482-20.14625185-3.88361482-29.61256297 0-4.73315555 1.94180741-9.10222222 4.85451852-12.62174815 8.49540742l-310.68918518 310.68918516c-15.17037037 15.17037037-15.17037037 39.80705185 0 54.85605928s39.80705185 15.17037037 54.85605926 0L473.16385185 361.79018272 473.16385185 889.47634569c0 21.48124445 17.3549037 38.83614815 38.83614815 38.83614813s38.83614815-17.3549037 38.83614815-38.83614813L550.83614815 361.79018272l244.4250074 244.42500741c7.5245037 7.5245037 17.47626667 11.40811852 27.42802963 11.40811851s19.90352592-3.76225185 27.42802964-11.40811851c15.17037037-15.17037037 15.17037037-39.80705185 0-54.85605928L539.54939259 240.66994569z">
	</path>
</svg>
